<svg xmlns="http://www.w3.org/2000/svg" xmlns:xlink="http://www.w3.org/1999/xlink" width="658.094" height="210.409" viewBox="0 0 658.094 210.409">
    <defs>
        <linearGradient id="linear-gradient" x1="0.5" y1="1" x2="0.5" gradientUnits="objectBoundingBox">
            <stop offset="0"/>
            <stop offset="1" stop-color="#432a47"/>
        </linearGradient>
        <linearGradient id="linear-gradient-3" x1="0.5" y1="1" x2="0.5" gradientUnits="objectBoundingBox">
            <stop offset="0"/>
            <stop offset="1" stop-color="#1d2a47"/>
        </linearGradient>
        <linearGradient id="linear-gradient-4" x1="0.5" y1="1" x2="0.5" gradientUnits="objectBoundingBox">
            <stop offset="0" stop-color="#99d49a"/>
            <stop offset="0.294" stop-color="#63a088"/>
            <stop offset="0.621" stop-color="#2d6d76"/>
            <stop offset="0.866" stop-color="#0c4d6b"/>
            <stop offset="1" stop-color="#004167"/>
        </linearGradient>
        <linearGradient id="linear-gradient-5" x1="0.5" y1="1" x2="0.5" gradientUnits="objectBoundingBox">
            <stop offset="0" stop-color="#432a47"/>
            <stop offset="1"/>
        </linearGradient>
    </defs>
    <g id="Group_187" data-name="Group 187" transform="translate(-372.81 438.771)">
        <path id="Path_1239" data-name="Path 1239" d="M116.375-3.967s24.953,18.621,36.457,23.527c0,0,14.392-1.075,16.338,0S179.663,25.939,180.546,28s1.474,6.483,3.242,8.546,17.682,9.725,23.281,10.609,19.156,3.537,21.808,5.305,1.768,5.894,3.241,7.956,10.315,5.6,13.851,7.957,14.585,1.768,17.9,3.242,10.39,5.893,10.39,5.893l2.649,2.358s-1.477,5.01,0,6.484S284.576,89,284.576,89s-4.715-4.715-4.715-7.662-2.95-5.3-2.95-5.3-14.732-6.778-16.8-8.546-20.629-17.093-22.1-19.745-4.716-10.02-6.484-12.082-18.566-6.484-22.692-8.252S199.4,20.34,196.9,15.919,189.682-.738,188.209-2.352s-4.715-1.615-4.715-1.615Z" transform="translate(488.237 -434.804)" fill-rule="evenodd" fill="url(#linear-gradient)" style="mix-blend-mode: screen;isolation: isolate"/>
        <path id="Path_1240" data-name="Path 1240" d="M442.813,32.767s17.766,15.914,28.327,22.1,16.348,3.537,16.348,3.537,9.326,2.72,15.031,7.106,4.821,12.344,8.357,16.764S529,83.6,529,83.6l21.858,24.147,14.449,15.2s-15.595-20.334-18.216-24.754-20.744-30.06-24.281-34.48-8.4-3.536-11.935-9.725-7.515-13.262-13.262-18.566-17.671-13.262-24.086-16.8a133.791,133.791,0,0,0-16.583-7.073L439.263,7.57,422.023-1.855H342.9s38.81,26.664,56.449,33.3C406.017,33.948,442.813,32.767,442.813,32.767Z" transform="translate(446.715 -436.916)" fill-rule="evenodd" fill="url(#linear-gradient)" style="mix-blend-mode: screen;isolation: isolate"/>
        <path id="Path_1241" data-name="Path 1241" d="M491.368,3.495s9.618,13.7,16.5,17.682,15.592,5.674,18.847,9.652S542.573,43.9,542.573,43.9l18.089,7.481s-24.626-20.819-27.325-25.661-9.94-8.82-9.94-8.82Z" transform="translate(419.5 -436.172)" fill-rule="evenodd" fill="url(#linear-gradient-3)" style="mix-blend-mode: screen;isolation: isolate"/>
        <path id="Path_1242" data-name="Path 1242" d="M-167.452,46.232s20.716,14.986,24.875,18.591,15.329,3.332,19.027,7.115,10.329,5.44,14.97,10.58,20.017,8.924,25.26,14.988,14.157,8.548,18.651,11.284,18.419,9.368,18.419,9.368-17-7.957-19.773-15.913-1.2-17.873-1.2-17.873,3.562-.781,0-7.368-.586-10.787-5.059-16.312-6.61-15.472-3.552-20.114,10.184-18.265,8.61-26.373S-54.961.13-54.961.13s20.92,1.989,23.435,5.3S-10.6,14.2-10.6,14.2s14.712.813,16.717,0,8.309,4.491,13.445,9.133,6.136,1.814,13.27,6.781,8.5,12.467,12.589,16.113c0,0-4.582-8.006-6.021-16.113a115.838,115.838,0,0,1,12.632,2.133c5.305,1.326,7.847,1.031,11.512,3.831a42.513,42.513,0,0,0,7.7,4.568s-6.207-5.6-7.7-8.694-2.671-6.189-4.587-7.367-23.587-6.647-29.14-9.217S19.563,4.329,19.563,4.329,6.856-13.524-1.16-13.8s-22.07-4.129-27.186-7.736-15.914-10.75-15.914-10.75H-167.452Z" transform="translate(540.262 -406.49)" fill-rule="evenodd" opacity="0.49" fill="url(#linear-gradient-4)"/>
        <path id="Path_1243" data-name="Path 1243" d="M369.051,148.45s17.766,15.914,28.326,22.1,16.349,3.536,16.349,3.536,9.325,2.72,15.03,7.107,6.633,7.718,10.17,12.138,14.345,3.21,14.345,3.21l24.637,12.785,25.044,13.925s-24.775-14.52-27.4-18.941-22.97-20.5-26.507-24.918-8.4-3.536-11.935-9.725S429.6,156.407,423.851,151.1s-17.671-13.262-24.086-16.8a133.829,133.829,0,0,0-16.582-7.073L365.5,123.253l-17.24-9.424H269.133s38.81,26.664,56.45,33.3C332.254,149.632,369.051,148.45,369.051,148.45Z" transform="translate(460.236 -456.396)" fill-rule="evenodd" fill="url(#linear-gradient-5)" style="mix-blend-mode: screen;isolation: isolate"/>
        <path id="Path_1244" data-name="Path 1244" d="M84.577,73.608s8.872,7.946,14.144,11.036,8.164,1.766,8.164,1.766a27.269,27.269,0,0,1,7.5,3.549c2.849,2.19,3.313,3.854,5.078,6.061s7.162,1.6,7.162,1.6l12.3,6.383,12.505,6.953s-12.371-7.25-13.68-9.457-11.47-10.235-13.235-12.442-4.194-1.766-5.959-4.856-3.753-6.622-6.623-9.27a78.424,78.424,0,0,0-12.027-8.388,66.817,66.817,0,0,0-8.28-3.531l-8.829-1.987L74.2,56.32H34.686S54.065,69.635,62.873,72.946C66.2,74.2,84.577,73.608,84.577,73.608Z" transform="translate(503.21 -445.855)" fill-rule="evenodd" fill="url(#linear-gradient-5)" style="mix-blend-mode: screen;isolation: isolate"/>
        <path id="Path_1245" data-name="Path 1245" d="M532.792,179.273s29.534,16.456,33.272,19.66-2.335,5.264-.589,7.142c4.349,4.68,26.707,10.957,26.707,10.957a7.4,7.4,0,0,1,4.531,5.518c.8,4.248,5.8,7,5.8,7l10.116,4.273s-21.388-17.926-23.139-22.2-4.536-4.777-9.08-7.091-19.674-8.388-20.825-12.66S530.9,153.992,525.2,151.322s-27.138-5.931-27.138-5.931S527.429,173.4,532.792,179.273Z" transform="translate(418.272 -462.181)" fill-rule="evenodd" fill="url(#linear-gradient)" style="mix-blend-mode: screen;isolation: isolate"/>
    </g>
</svg>
