<svg xmlns="http://www.w3.org/2000/svg" width="854.617" height="359.533" viewBox="0 0 854.617 359.533">
  <g id="Group_189" data-name="Group 189" transform="translate(33.121 39.415)" style="mix-blend-mode: soft-light;isolation: isolate">
    <path id="Path_453" data-name="Path 453" d="M142.833,105.126a1.454,1.454,0,1,1-1.454-1.454A1.454,1.454,0,0,1,142.833,105.126Z" transform="translate(55.152 184.499)" fill="#fff" fill-rule="evenodd"/>
    <path id="Path_454" data-name="Path 454" d="M105.492,14.068a1.454,1.454,0,1,1-1.454-1.454A1.455,1.455,0,0,1,105.492,14.068Z" transform="translate(43.251 55.77)" fill="#fff" fill-rule="evenodd"/>
    <path id="Path_455" data-name="Path 455" d="M93.347,27.431a1.454,1.454,0,1,1-1.455-1.454A1.455,1.455,0,0,1,93.347,27.431Z" transform="translate(0 70.093)" fill="#fff" fill-rule="evenodd"/>
    <path id="Path_456" data-name="Path 456" d="M36.669,77.615a1.454,1.454,0,1,1-1.454-1.454A1.454,1.454,0,0,1,36.669,77.615Z" transform="translate(0 123.885)" fill="#fff" fill-rule="evenodd"/>
    <path id="Path_457" data-name="Path 457" d="M-27.945,23.367A1.454,1.454,0,0,1-29.4,24.822a1.454,1.454,0,0,1-1.454-1.455A1.454,1.454,0,0,1-29.4,21.913,1.454,1.454,0,0,1-27.945,23.367Z" transform="translate(0 65.737)" fill="#fff" fill-rule="evenodd"/>
    <path id="Path_458" data-name="Path 458" d="M-22.407,69.081a1.455,1.455,0,0,1-1.455,1.455,1.455,1.455,0,0,1-1.454-1.455,1.454,1.454,0,0,1,1.454-1.454A1.454,1.454,0,0,1-22.407,69.081Z" transform="translate(0 114.738)" fill="#fff" fill-rule="evenodd"/>
    <path id="Path_459" data-name="Path 459" d="M141.379,77.615a1.454,1.454,0,1,1-1.455-1.454A1.455,1.455,0,0,1,141.379,77.615Z" transform="translate(54.689 123.885)" fill="#fff" fill-rule="evenodd"/>
    <path id="Path_460" data-name="Path 460" d="M35.215,51.96a1.455,1.455,0,1,1-1.454-1.454A1.454,1.454,0,0,1,35.215,51.96Z" transform="translate(0 96.386)" fill="#fff" fill-rule="evenodd"/>
    <path id="Path_461" data-name="Path 461" d="M161.782,111.1a1.028,1.028,0,1,1-1.028-1.028A1.029,1.029,0,0,1,161.782,111.1Z" transform="translate(61.382 184.499)" fill="#fff" fill-rule="evenodd"/>
    <path id="Path_462" data-name="Path 462" d="M20.1,77.615a1.028,1.028,0,1,1-1.028-1.028A1.029,1.029,0,0,1,20.1,77.615Z" transform="translate(0 123.729)" fill="#fff" fill-rule="evenodd"/>
    <circle id="Ellipse_1" data-name="Ellipse 1" cx="1.028" cy="1.028" r="1.028" transform="translate(165.996 237.671)" fill="#fff"/>
    <path id="Path_463" data-name="Path 463" d="M170.789,37.27a1.029,1.029,0,1,1-1.029-1.028A1.029,1.029,0,0,1,170.789,37.27Z" transform="translate(64.249 80.697)" fill="#fff" fill-rule="evenodd"/>
    <circle id="Ellipse_2" data-name="Ellipse 2" cx="1.028" cy="1.028" r="1.028" transform="translate(234.007 207.046)" fill="#fff"/>
    <path id="Path_464" data-name="Path 464" d="M112.214,83.624a.755.755,0,1,1-.755-.755A.755.755,0,0,1,112.214,83.624Z" transform="translate(45.74 130.019)" fill="#fff" fill-rule="evenodd"/>
    <path id="Path_465" data-name="Path 465" d="M61.57,72.491a.756.756,0,1,1-.756-.755A.756.756,0,0,1,61.57,72.491Z" transform="translate(0 118.182)" fill="#fff" fill-rule="evenodd"/>
    <path id="Path_466" data-name="Path 466" d="M-5.876,94.479a.755.755,0,0,1-.755.755.756.756,0,0,1-.756-.755.756.756,0,0,1,.756-.756A.755.755,0,0,1-5.876,94.479Z" transform="translate(0 141.56)" fill="#fff" fill-rule="evenodd"/>
    <path id="Path_467" data-name="Path 467" d="M-5.876,77.174a.755.755,0,0,1-.755.755.756.756,0,0,1-.756-.755.756.756,0,0,1,.756-.756A.755.755,0,0,1-5.876,77.174Z" transform="translate(0 123.16)" fill="#fff" fill-rule="evenodd"/>
    <path id="Path_468" data-name="Path 468" d="M8.193,32.833a.756.756,0,1,1-.755-.755A.755.755,0,0,1,8.193,32.833Z" transform="translate(0 76.016)" fill="#fff" fill-rule="evenodd"/>
    <path id="Path_469" data-name="Path 469" d="M144.584,99.4a.484.484,0,1,1-.484-.484A.485.485,0,0,1,144.584,99.4Z" transform="translate(56.16 146.625)" fill="#fff" fill-rule="evenodd"/>
    <path id="Path_470" data-name="Path 470" d="M116.742,95.206a.484.484,0,1,1-.485-.485A.485.485,0,0,1,116.742,95.206Z" transform="translate(47.313 142.178)" fill="#fff" fill-rule="evenodd"/>
    <path id="Path_471" data-name="Path 471" d="M117.227,106.58a.485.485,0,1,1-.485-.485A.485.485,0,0,1,117.227,106.58Z" transform="translate(47.467 184.499)" fill="#fff" fill-rule="evenodd"/>
    <path id="Path_472" data-name="Path 472" d="M123.442,103.672a.485.485,0,1,1-.485-.485A.485.485,0,0,1,123.442,103.672Z" transform="translate(49.442 184.499)" fill="#fff" fill-rule="evenodd"/>
    <circle id="Ellipse_3" data-name="Ellipse 3" cx="0.485" cy="0.485" r="0.485" transform="translate(154.846 289.815)" fill="#fff"/>
    <circle id="Ellipse_4" data-name="Ellipse 4" cx="0.485" cy="0.485" r="0.485" transform="translate(-32.152 306.207)" fill="#fff"/>
    <circle id="Ellipse_5" data-name="Ellipse 5" cx="0.485" cy="0.485" r="0.485" transform="translate(205.442 181.086)" fill="#fff"/>
    <circle id="Ellipse_6" data-name="Ellipse 6" cx="0.242" cy="0.242" r="0.242" transform="translate(174.886 238.498)" fill="#fff"/>
    <path id="Path_473" data-name="Path 473" d="M18.291,129.661a.243.243,0,1,1-.242-.242A.242.242,0,0,1,18.291,129.661Z" transform="translate(0 184.499)" fill="#fff" fill-rule="evenodd"/>
    <circle id="Ellipse_7" data-name="Ellipse 7" cx="0.242" cy="0.242" r="0.242" transform="translate(66.686 238.997)" fill="#fff"/>
    <circle id="Ellipse_8" data-name="Ellipse 8" cx="0.242" cy="0.242" r="0.242" transform="translate(11.701 231.964)" fill="#fff"/>
    <circle id="Ellipse_9" data-name="Ellipse 9" cx="0.242" cy="0.242" r="0.242" transform="translate(94.577 231.465)" fill="#fff"/>
    <circle id="Ellipse_10" data-name="Ellipse 10" cx="0.242" cy="0.242" r="0.242" transform="translate(60.572 236.005)" fill="#fff"/>
    <circle id="Ellipse_11" data-name="Ellipse 11" cx="0.242" cy="0.242" r="0.242" transform="translate(-22.65 238.648)" fill="#fff"/>
    <path id="Path_474" data-name="Path 474" d="M-30.94,95.206a.242.242,0,0,1-.242.242.242.242,0,0,1-.243-.242.242.242,0,0,1,.243-.242A.242.242,0,0,1-30.94,95.206Z" transform="translate(0 142.039)" fill="#fff" fill-rule="evenodd"/>
    <circle id="Ellipse_12" data-name="Ellipse 12" cx="0.242" cy="0.242" r="0.242" transform="translate(170.092 246.632)" fill="#fff"/>
    <path id="Path_475" data-name="Path 475" d="M75.685,100.13a.243.243,0,1,1-.242-.243A.242.242,0,0,1,75.685,100.13Z" transform="translate(0 147.243)" fill="#fff" fill-rule="evenodd"/>
    <circle id="Ellipse_13" data-name="Ellipse 13" cx="0.242" cy="0.242" r="0.242" transform="translate(11.458 248.581)" fill="#fff"/>
    <path id="Path_476" data-name="Path 476" d="M123.442,92.029a.485.485,0,1,1-.485-.484A.485.485,0,0,1,123.442,92.029Z" transform="translate(49.442 138.811)" fill="#fff" fill-rule="evenodd"/>
    <path id="Path_477" data-name="Path 477" d="M101.19,91.545a.485.485,0,1,1-.485-.485A.485.485,0,0,1,101.19,91.545Z" transform="translate(42.371 138.296)" fill="#fff" fill-rule="evenodd"/>
    <path id="Path_478" data-name="Path 478" d="M9.163,71.02a.485.485,0,1,1-.485-.484A.485.485,0,0,1,9.163,71.02Z" transform="translate(0 116.542)" fill="#fff" fill-rule="evenodd"/>
    <circle id="Ellipse_14" data-name="Ellipse 14" cx="0.485" cy="0.485" r="0.485" transform="translate(154.846 109.971)" fill="#fff"/>
    <path id="Path_479" data-name="Path 479" d="M92.256,1.939a.485.485,0,1,1-.485-.485A.485.485,0,0,1,92.256,1.939Z" transform="translate(0 43.319)" fill="#fff" fill-rule="evenodd"/>
    <path id="Path_480" data-name="Path 480" d="M85.151,107.894a.485.485,0,1,1-.484-.485A.484.484,0,0,1,85.151,107.894Z" transform="translate(0 184.499)" fill="#fff" fill-rule="evenodd"/>
    <circle id="Ellipse_15" data-name="Ellipse 15" cx="0.485" cy="0.485" r="0.485" transform="translate(5.712 186.079)" fill="#fff"/>
    <circle id="Ellipse_16" data-name="Ellipse 16" cx="0.485" cy="0.485" r="0.485" transform="translate(-2.315 128.069)" fill="#fff"/>
    <path id="Path_481" data-name="Path 481" d="M-19.863,42.86a.485.485,0,0,1-.485.484.485.485,0,0,1-.485-.484.485.485,0,0,1,.485-.485A.485.485,0,0,1-19.863,42.86Z" transform="translate(0 86.693)" fill="#fff" fill-rule="evenodd"/>
    <circle id="Ellipse_17" data-name="Ellipse 17" cx="0.485" cy="0.485" r="0.485" transform="translate(39.406 72.755)" fill="#fff"/>
    <path id="Path_482" data-name="Path 482" d="M80.924,2.908a.485.485,0,1,1-.485-.485A.485.485,0,0,1,80.924,2.908Z" transform="translate(0 44.346)" fill="#fff" fill-rule="evenodd"/>
    <circle id="Ellipse_18" data-name="Ellipse 18" cx="0.485" cy="0.485" r="0.485" transform="translate(-8.356 194.549)" fill="#fff"/>
    <path id="Path_483" data-name="Path 483" d="M-20.348,41.4a.485.485,0,0,1-.485.485.485.485,0,0,1-.484-.485.484.484,0,0,1,.484-.484A.485.485,0,0,1-20.348,41.4Z" transform="translate(0 85.152)" fill="#fff" fill-rule="evenodd"/>
    <path id="Path_484" data-name="Path 484" d="M6.2,41.4a.485.485,0,1,1-.485-.484A.485.485,0,0,1,6.2,41.4Z" transform="translate(0 85.152)" fill="#fff" fill-rule="evenodd"/>
    <circle id="Ellipse_19" data-name="Ellipse 19" cx="0.485" cy="0.485" r="0.485" transform="translate(48.179 85.919)" fill="#fff"/>
    <path id="Path_485" data-name="Path 485" d="M94.82,68.6a.485.485,0,1,1-.485-.484A.485.485,0,0,1,94.82,68.6Z" transform="translate(0 113.973)" fill="#fff" fill-rule="evenodd"/>
    <circle id="Ellipse_20" data-name="Ellipse 20" cx="0.485" cy="0.485" r="0.485" transform="translate(13.287 113.013)" fill="#fff"/>
    <path id="Path_486" data-name="Path 486" d="M-32.152,25.977a.484.484,0,0,1-.484.484.485.485,0,0,1-.485-.484.485.485,0,0,1,.485-.485A.485.485,0,0,1-32.152,25.977Z" transform="translate(0 68.798)" fill="#fff" fill-rule="evenodd"/>
    <path id="Path_487" data-name="Path 487" d="M86.176,46.306a.485.485,0,1,1-.485-.485A.485.485,0,0,1,86.176,46.306Z" transform="translate(0 90.346)" fill="#fff" fill-rule="evenodd"/>
    <path id="Path_488" data-name="Path 488" d="M13.155,10.049a.485.485,0,1,1-.485-.484A.485.485,0,0,1,13.155,10.049Z" transform="translate(0 51.916)" fill="#fff" fill-rule="evenodd"/>
    <path id="Path_489" data-name="Path 489" d="M119.439,65.8a.485.485,0,1,1-.485-.485A.485.485,0,0,1,119.439,65.8Z" transform="translate(48.17 111.009)" fill="#fff" fill-rule="evenodd"/>
    <path id="Path_490" data-name="Path 490" d="M231,26.626a1.455,1.455,0,1,1,0,2.057A1.455,1.455,0,0,1,231,26.626Z" transform="translate(84.044 70.332)" fill="#fff" fill-rule="evenodd"/>
    <path id="Path_491" data-name="Path 491" d="M170.539,30.622a1.454,1.454,0,1,1,0,2.056A1.455,1.455,0,0,1,170.539,30.622Z" transform="translate(64.774 74.615)" fill="#fff" fill-rule="evenodd"/>
    <path id="Path_492" data-name="Path 492" d="M212.576,47.107a1.454,1.454,0,1,1,0,2.057A1.453,1.453,0,0,1,212.576,47.107Z" transform="translate(78.172 92.286)" fill="#fff" fill-rule="evenodd"/>
    <path id="Path_493" data-name="Path 493" d="M221.825,9a1.029,1.029,0,1,1,0,1.455A1.03,1.03,0,0,1,221.825,9Z" transform="translate(81.053 51.322)" fill="#fff" fill-rule="evenodd"/>
    <path id="Path_494" data-name="Path 494" d="M240.49,49.46a1.028,1.028,0,1,1,0,1.454A1.028,1.028,0,0,1,240.49,49.46Z" transform="translate(86.994 94.474)" fill="#fff" fill-rule="evenodd"/>
    <path id="Path_495" data-name="Path 495" d="M193.532,23.458a1.028,1.028,0,1,1,0,1.454A1.027,1.027,0,0,1,193.532,23.458Z" transform="translate(72.047 66.74)" fill="#fff" fill-rule="evenodd"/>
    <circle id="Ellipse_21" data-name="Ellipse 21" cx="0.756" cy="0.756" r="0.756" transform="translate(323.203 172.429)" fill="#fff"/>
    <path id="Path_496" data-name="Path 496" d="M225.715,29.435a.484.484,0,1,1,0,.685A.483.483,0,0,1,225.715,29.435Z" transform="translate(82.203 72.827)" fill="#fff" fill-rule="evenodd"/>
    <path id="Path_497" data-name="Path 497" d="M242.435,52.09a.484.484,0,1,1,0,.685A.483.483,0,0,1,242.435,52.09Z" transform="translate(87.516 96.84)" fill="#fff" fill-rule="evenodd"/>
    <path id="Path_498" data-name="Path 498" d="M250.135,43.7a.485.485,0,1,1,0,.686A.485.485,0,0,1,250.135,43.7Z" transform="translate(89.963 87.952)" fill="#fff" fill-rule="evenodd"/>
    <path id="Path_499" data-name="Path 499" d="M243.683,41.366a.485.485,0,1,1,0,.685A.484.484,0,0,1,243.683,41.366Z" transform="translate(87.913 85.473)" fill="#fff" fill-rule="evenodd"/>
    <path id="Path_500" data-name="Path 500" d="M200.548,48.52a.484.484,0,1,1,0,.685A.483.483,0,0,1,200.548,48.52Z" transform="translate(74.206 93.056)" fill="#fff" fill-rule="evenodd"/>
    <path id="Path_501" data-name="Path 501" d="M236.94,45.566a.242.242,0,1,1,0,.343A.241.241,0,0,1,236.94,45.566Z" transform="translate(85.728 89.75)" fill="#fff" fill-rule="evenodd"/>
    <path id="Path_502" data-name="Path 502" d="M255.861,69.323a.243.243,0,1,1,0,.343A.242.242,0,0,1,255.861,69.323Z" transform="translate(91.736 114.862)" fill="#fff" fill-rule="evenodd"/>
    <circle id="Ellipse_22" data-name="Ellipse 22" cx="0.242" cy="0.242" r="0.242" transform="translate(240.238 51.784)" fill="#fff"/>
    <path id="Path_503" data-name="Path 503" d="M242.308,45.343a.242.242,0,1,1,0,.342A.242.242,0,0,1,242.308,45.343Z" transform="translate(87.433 89.514)" fill="#fff" fill-rule="evenodd"/>
    <path id="Path_504" data-name="Path 504" d="M235.451,49.6a.485.485,0,1,1,0,.686A.485.485,0,0,1,235.451,49.6Z" transform="translate(85.297 94.199)" fill="#fff" fill-rule="evenodd"/>
    <path id="Path_505" data-name="Path 505" d="M250.843,65.676a.484.484,0,1,1,0,.685A.483.483,0,0,1,250.843,65.676Z" transform="translate(90.188 111.24)" fill="#fff" fill-rule="evenodd"/>
    <path id="Path_506" data-name="Path 506" d="M154.564,5.3a.485.485,0,1,1,0,.686A.485.485,0,0,1,154.564,5.3Z" transform="translate(59.594 47.251)" fill="#fff" fill-rule="evenodd"/>
    <path id="Path_507" data-name="Path 507" d="M239.121,86.407a.484.484,0,1,1,0,.685A.485.485,0,0,1,239.121,86.407Z" transform="translate(86.463 133.214)" fill="#fff" fill-rule="evenodd"/>
    <path id="Path_508" data-name="Path 508" d="M219.735,70.976a.485.485,0,1,1,0,.686A.485.485,0,0,1,219.735,70.976Z" transform="translate(80.303 116.859)" fill="#fff" fill-rule="evenodd"/>
    <path id="Path_509" data-name="Path 509" d="M288.684,53.138a1.454,1.454,0,1,1,0,2.056A1.453,1.453,0,0,1,288.684,53.138Z" transform="translate(102.428 98.75)" fill="#fff" fill-rule="evenodd"/>
    <path id="Path_510" data-name="Path 510" d="M359.635,23.793a1.455,1.455,0,1,1,0,2.057A1.455,1.455,0,0,1,359.635,23.793Z" transform="translate(125.042 67.296)" fill="#fff" fill-rule="evenodd"/>
    <path id="Path_511" data-name="Path 511" d="M318.146,32.076a1.455,1.455,0,1,1,0,2.057A1.455,1.455,0,0,1,318.146,32.076Z" transform="translate(111.819 76.174)" fill="#fff" fill-rule="evenodd"/>
    <path id="Path_512" data-name="Path 512" d="M270.259,73.619a1.454,1.454,0,1,1,0,2.056A1.455,1.455,0,0,1,270.259,73.619Z" transform="translate(96.556 120.703)" fill="#fff" fill-rule="evenodd"/>
    <circle id="Ellipse_23" data-name="Ellipse 23" cx="1.454" cy="1.454" r="1.454" transform="translate(372.334 225.23)" fill="#fff"/>
    <path id="Path_513" data-name="Path 513" d="M279.509,35.515a1.028,1.028,0,1,1,0,1.454A1.027,1.027,0,0,1,279.509,35.515Z" transform="translate(99.413 79.6)" fill="#fff" fill-rule="evenodd"/>
    <path id="Path_514" data-name="Path 514" d="M336.794,8.837a1.028,1.028,0,1,1,0,1.455A1.029,1.029,0,0,1,336.794,8.837Z" transform="translate(117.646 51.145)" fill="#fff" fill-rule="evenodd"/>
    <path id="Path_515" data-name="Path 515" d="M328.56,16.833a1.028,1.028,0,1,1,0,1.454A1.028,1.028,0,0,1,328.56,16.833Z" transform="translate(115.026 59.673)" fill="#fff" fill-rule="evenodd"/>
    <path id="Path_516" data-name="Path 516" d="M298.174,75.971a1.028,1.028,0,1,1,0,1.454A1.029,1.029,0,0,1,298.174,75.971Z" transform="translate(105.354 122.751)" fill="#fff" fill-rule="evenodd"/>
    <path id="Path_517" data-name="Path 517" d="M251.215,49.969a1.029,1.029,0,1,1,0,1.455A1.03,1.03,0,0,1,251.215,49.969Z" transform="translate(90.407 95.017)" fill="#fff" fill-rule="evenodd"/>
    <path id="Path_518" data-name="Path 518" d="M295.13,89.992a.756.756,0,1,1,0,1.069A.756.756,0,0,1,295.13,89.992Z" transform="translate(104.323 137.358)" fill="#fff" fill-rule="evenodd"/>
    <circle id="Ellipse_24" data-name="Ellipse 24" cx="0.756" cy="0.756" r="0.756" transform="translate(407.199 289.06)" fill="#fff"/>
    <circle id="Ellipse_25" data-name="Ellipse 25" cx="0.756" cy="0.756" r="0.756" transform="translate(369.019 217.8)" fill="#fff"/>
    <path id="Path_519" data-name="Path 519" d="M228.355,113.212a.755.755,0,1,1,0,1.068A.753.753,0,0,1,228.355,113.212Z" transform="translate(83.086 184.499)" fill="#fff" fill-rule="evenodd"/>
    <path id="Path_520" data-name="Path 520" d="M283.4,55.946a.485.485,0,1,1,0,.686A.486.486,0,0,1,283.4,55.946Z" transform="translate(100.533 100.928)" fill="#fff" fill-rule="evenodd"/>
    <path id="Path_521" data-name="Path 521" d="M300.118,78.6a.485.485,0,1,1,0,.686A.486.486,0,0,1,300.118,78.6Z" transform="translate(105.846 124.941)" fill="#fff" fill-rule="evenodd"/>
    <path id="Path_522" data-name="Path 522" d="M275.888,84.88a.485.485,0,1,1,0,.686A.486.486,0,0,1,275.888,84.88Z" transform="translate(98.146 131.596)" fill="#fff" fill-rule="evenodd"/>
    <path id="Path_523" data-name="Path 523" d="M329.973,74.3a.485.485,0,1,1,0,.686A.486.486,0,0,1,329.973,74.3Z" transform="translate(115.332 120.386)" fill="#fff" fill-rule="evenodd"/>
    <path id="Path_524" data-name="Path 524" d="M344.717,70.7a.485.485,0,1,1,0,.686A.485.485,0,0,1,344.717,70.7Z" transform="translate(120.017 116.566)" fill="#fff" fill-rule="evenodd"/>
    <path id="Path_525" data-name="Path 525" d="M307.818,70.215a.485.485,0,1,1,0,.686A.486.486,0,0,1,307.818,70.215Z" transform="translate(108.292 116.052)" fill="#fff" fill-rule="evenodd"/>
    <path id="Path_526" data-name="Path 526" d="M204.493,34.723a.485.485,0,1,1,0,.686A.485.485,0,0,1,204.493,34.723Z" transform="translate(75.459 78.432)" fill="#fff" fill-rule="evenodd"/>
    <path id="Path_527" data-name="Path 527" d="M371.642,10.191a.485.485,0,1,1,0,.686A.485.485,0,0,1,371.642,10.191Z" transform="translate(128.573 52.43)" fill="#fff" fill-rule="evenodd"/>
    <path id="Path_528" data-name="Path 528" d="M301.366,67.877a.485.485,0,1,1,0,.686A.486.486,0,0,1,301.366,67.877Z" transform="translate(106.242 113.574)" fill="#fff" fill-rule="evenodd"/>
    <path id="Path_529" data-name="Path 529" d="M258.231,75.031a.485.485,0,1,1,0,.686A.486.486,0,0,1,258.231,75.031Z" transform="translate(92.535 121.157)" fill="#fff" fill-rule="evenodd"/>
    <path id="Path_530" data-name="Path 530" d="M148.057,31.307a.485.485,0,1,1,0,.686A.486.486,0,0,1,148.057,31.307Z" transform="translate(57.526 74.812)" fill="#fff" fill-rule="evenodd"/>
    <path id="Path_531" data-name="Path 531" d="M294.623,72.078a.242.242,0,1,1,0,.342A.242.242,0,0,1,294.623,72.078Z" transform="translate(104.044 117.773)" fill="#fff" fill-rule="evenodd"/>
    <circle id="Ellipse_26" data-name="Ellipse 26" cx="0.242" cy="0.242" r="0.242" transform="translate(348.166 205.952)" fill="#fff"/>
    <path id="Path_532" data-name="Path 532" d="M262.993,75.5a.242.242,0,1,1,0,.342A.242.242,0,0,1,262.993,75.5Z" transform="translate(94.001 121.389)" fill="#fff" fill-rule="evenodd"/>
    <path id="Path_533" data-name="Path 533" d="M219.179,32.662a.243.243,0,1,1,0,.343A.242.242,0,0,1,219.179,32.662Z" transform="translate(80.089 76.111)" fill="#fff" fill-rule="evenodd"/>
    <circle id="Ellipse_27" data-name="Ellipse 27" cx="0.242" cy="0.242" r="0.242" transform="translate(423.526 238.648)" fill="#fff"/>
    <circle id="Ellipse_28" data-name="Ellipse 28" cx="0.242" cy="0.242" r="0.242" transform="translate(423.845 297.275)" fill="#fff"/>
    <path id="Path_534" data-name="Path 534" d="M164.159,91.054a.242.242,0,1,1,0,.342A.242.242,0,0,1,164.159,91.054Z" transform="translate(62.619 137.831)" fill="#fff" fill-rule="evenodd"/>
    <circle id="Ellipse_29" data-name="Ellipse 29" cx="0.242" cy="0.242" r="0.242" transform="translate(411.665 297.518)" fill="#fff"/>
    <circle id="Ellipse_30" data-name="Ellipse 30" cx="0.242" cy="0.242" r="0.242" transform="translate(411.346 294.328)" fill="#fff"/>
    <path id="Path_535" data-name="Path 535" d="M274.169,87.931a.242.242,0,1,1,0,.342A.242.242,0,0,1,274.169,87.931Z" transform="translate(97.55 134.53)" fill="#fff" fill-rule="evenodd"/>
    <path id="Path_536" data-name="Path 536" d="M299.991,71.854a.243.243,0,1,1,0,.343A.242.242,0,0,1,299.991,71.854Z" transform="translate(105.749 117.537)" fill="#fff" fill-rule="evenodd"/>
    <path id="Path_537" data-name="Path 537" d="M272.57,84.324a.243.243,0,1,1,0,.343A.244.244,0,0,1,272.57,84.324Z" transform="translate(97.042 130.718)" fill="#fff" fill-rule="evenodd"/>
    <path id="Path_538" data-name="Path 538" d="M293.134,76.109a.485.485,0,1,1,0,.686A.486.486,0,0,1,293.134,76.109Z" transform="translate(103.626 122.299)" fill="#fff" fill-rule="evenodd"/>
    <path id="Path_539" data-name="Path 539" d="M263.549,83.91a.485.485,0,1,1,0,.686A.486.486,0,0,1,263.549,83.91Z" transform="translate(94.225 130.568)" fill="#fff" fill-rule="evenodd"/>
    <path id="Path_540" data-name="Path 540" d="M269.975,84.395a.485.485,0,1,1,0,.686A.486.486,0,0,1,269.975,84.395Z" transform="translate(96.267 131.082)" fill="#fff" fill-rule="evenodd"/>
    <path id="Path_541" data-name="Path 541" d="M159.382,44.189a.485.485,0,1,1,0,.685A.484.484,0,0,1,159.382,44.189Z" transform="translate(61.125 88.465)" fill="#fff" fill-rule="evenodd"/>
    <path id="Path_542" data-name="Path 542" d="M167.468,28.062a1.028,1.028,0,1,1,0,1.454A1.027,1.027,0,0,1,167.468,28.062Z" transform="translate(63.751 71.65)" fill="#fff" fill-rule="evenodd"/>
    <path id="Path_543" data-name="Path 543" d="M177.112,22.306a.485.485,0,1,1,0,.686A.486.486,0,0,1,177.112,22.306Z" transform="translate(66.759 65.271)" fill="#fff" fill-rule="evenodd"/>
    <path id="Path_544" data-name="Path 544" d="M170.66,19.968a.485.485,0,1,1,0,.685A.486.486,0,0,1,170.66,19.968Z" transform="translate(64.709 62.793)" fill="#fff" fill-rule="evenodd"/>
    <path id="Path_545" data-name="Path 545" d="M163.917,24.168a.243.243,0,1,1,0,.343A.244.244,0,0,1,163.917,24.168Z" transform="translate(62.542 67.133)" fill="#fff" fill-rule="evenodd"/>
    <path id="Path_546" data-name="Path 546" d="M169.285,23.945a.243.243,0,1,1,0,.343A.242.242,0,0,1,169.285,23.945Z" transform="translate(64.246 66.897)" fill="#fff" fill-rule="evenodd"/>
    <path id="Path_547" data-name="Path 547" d="M162.428,28.2a.485.485,0,1,1,0,.686A.486.486,0,0,1,162.428,28.2Z" transform="translate(62.093 71.518)" fill="#fff" fill-rule="evenodd"/>
    <path id="Path_548" data-name="Path 548" d="M308.526,92.187a.485.485,0,1,1,0,.686A.486.486,0,0,1,308.526,92.187Z" transform="translate(108.517 139.341)" fill="#fff" fill-rule="evenodd"/>
    <path id="Path_549" data-name="Path 549" d="M366.044,48.035a.484.484,0,1,1,0,.685A.485.485,0,0,1,366.044,48.035Z" transform="translate(126.794 92.542)" fill="#fff" fill-rule="evenodd"/>
    <path id="Path_550" data-name="Path 550" d="M353.921,92.672a.485.485,0,1,1,0,.685A.484.484,0,0,1,353.921,92.672Z" transform="translate(122.942 139.855)" fill="#fff" fill-rule="evenodd"/>
    <path id="Path_551" data-name="Path 551" d="M287.915,109.486a.484.484,0,1,1,0,.685A.485.485,0,0,1,287.915,109.486Z" transform="translate(101.968 184.499)" fill="#fff" fill-rule="evenodd"/>
    <path id="Path_552" data-name="Path 552" d="M372.749,43.7a.485.485,0,1,1,0,.686A.486.486,0,0,1,372.749,43.7Z" transform="translate(128.925 87.952)" fill="#fff" fill-rule="evenodd"/>
    <path id="Path_553" data-name="Path 553" d="M193.171,85.524a1.028,1.028,0,1,1,0,1.454A1.027,1.027,0,0,1,193.171,85.524Z" transform="translate(71.932 132.94)" fill="#fff" fill-rule="evenodd"/>
    <path id="Path_554" data-name="Path 554" d="M194.56,54.189a1.028,1.028,0,1,1,0,1.454A1.028,1.028,0,0,1,194.56,54.189Z" transform="translate(72.374 99.518)" fill="#fff" fill-rule="evenodd"/>
    <path id="Path_555" data-name="Path 555" d="M18.35,87.617a1.028,1.028,0,1,1,0,1.454A1.029,1.029,0,0,1,18.35,87.617Z" transform="translate(0 135.173)" fill="#fff" fill-rule="evenodd"/>
    <circle id="Ellipse_31" data-name="Ellipse 31" cx="0.756" cy="0.756" r="0.756" transform="translate(260.834 246.839)" fill="#fff"/>
    <circle id="Ellipse_32" data-name="Ellipse 32" cx="0.485" cy="0.485" r="0.485" transform="translate(267.453 223.078)" fill="#fff"/>
    <path id="Path_556" data-name="Path 556" d="M202.815,79.768a.485.485,0,1,1,0,.686A.486.486,0,0,1,202.815,79.768Z" transform="translate(74.926 126.178)" fill="#fff" fill-rule="evenodd"/>
    <path id="Path_557" data-name="Path 557" d="M211.807,50.872a.485.485,0,1,1,0,.686A.486.486,0,0,1,211.807,50.872Z" transform="translate(77.784 95.549)" fill="#fff" fill-rule="evenodd"/>
    <path id="Path_558" data-name="Path 558" d="M196.363,77.43a.485.485,0,1,1,0,.686A.486.486,0,0,1,196.363,77.43Z" transform="translate(72.876 123.7)" fill="#fff" fill-rule="evenodd"/>
    <path id="Path_559" data-name="Path 559" d="M189.62,81.63a.243.243,0,1,1,0,.343A.244.244,0,0,1,189.62,81.63Z" transform="translate(70.703 127.871)" fill="#fff" fill-rule="evenodd"/>
    <path id="Path_560" data-name="Path 560" d="M180.345,101.575a.243.243,0,1,1,0,.343A.244.244,0,0,1,180.345,101.575Z" transform="translate(67.758 184.499)" fill="#fff" fill-rule="evenodd"/>
    <path id="Path_561" data-name="Path 561" d="M208.542,105.387a.243.243,0,1,1,0,.343A.244.244,0,0,1,208.542,105.387Z" transform="translate(76.711 184.499)" fill="#fff" fill-rule="evenodd"/>
    <path id="Path_562" data-name="Path 562" d="M194.988,81.407a.243.243,0,1,1,0,.343A.242.242,0,0,1,194.988,81.407Z" transform="translate(72.408 127.634)" fill="#fff" fill-rule="evenodd"/>
    <path id="Path_563" data-name="Path 563" d="M188.131,85.662a.485.485,0,1,1,0,.686A.486.486,0,0,1,188.131,85.662Z" transform="translate(70.26 132.425)" fill="#fff" fill-rule="evenodd"/>
    <circle id="Ellipse_33" data-name="Ellipse 33" cx="0.485" cy="0.485" r="0.485" transform="translate(214.654 217.333)" fill="#fff"/>
    <path id="Path_564" data-name="Path 564" d="M203.523,101.74a.485.485,0,1,1,0,.685A.484.484,0,0,1,203.523,101.74Z" transform="translate(75.151 184.499)" fill="#fff" fill-rule="evenodd"/>
    <path id="Path_565" data-name="Path 565" d="M296.8,112.918a.485.485,0,1,1,0,.686A.485.485,0,0,1,296.8,112.918Z" transform="translate(104.792 184.499)" fill="#fff" fill-rule="evenodd"/>
    <path id="Path_566" data-name="Path 566" d="M303.644,134.791a.485.485,0,1,1,0,.686A.485.485,0,0,1,303.644,134.791Z" transform="translate(106.966 184.499)" fill="#fff" fill-rule="evenodd"/>
    <path id="Path_567" data-name="Path 567" d="M277.418,97.487a.485.485,0,1,1,0,.686A.486.486,0,0,1,277.418,97.487Z" transform="translate(98.632 144.959)" fill="#fff" fill-rule="evenodd"/>
    <path id="Path_568" data-name="Path 568" d="M384.906,60.79a1.454,1.454,0,1,1-1.454-1.454A1.454,1.454,0,0,1,384.906,60.79Z" transform="translate(132.305 105.85)" fill="#fff" fill-rule="evenodd"/>
    <path id="Path_569" data-name="Path 569" d="M383.452,33.279A1.454,1.454,0,1,1,382,31.825,1.454,1.454,0,0,1,383.452,33.279Z" transform="translate(131.841 76.362)" fill="#fff" fill-rule="evenodd"/>
    <path id="Path_570" data-name="Path 570" d="M403.855,66.764a1.029,1.029,0,1,1-1.028-1.029A1.028,1.028,0,0,1,403.855,66.764Z" transform="translate(138.433 112.154)" fill="#fff" fill-rule="evenodd"/>
    <path id="Path_571" data-name="Path 571" d="M362.05,51.355a1.028,1.028,0,1,1-1.028-1.029A1.028,1.028,0,0,1,362.05,51.355Z" transform="translate(125.127 95.719)" fill="#fff" fill-rule="evenodd"/>
    <path id="Path_572" data-name="Path 572" d="M412.862-7.066a1.029,1.029,0,0,1-1.028,1.029A1.029,1.029,0,0,1,410.8-7.066a1.029,1.029,0,0,1,1.029-1.028A1.028,1.028,0,0,1,412.862-7.066Z" transform="translate(141.3)" fill="#fff" fill-rule="evenodd"/>
    <circle id="Ellipse_34" data-name="Ellipse 34" cx="1.028" cy="1.028" r="1.028" transform="translate(553.132 115.421)" fill="#fff"/>
    <path id="Path_573" data-name="Path 573" d="M354.288,39.288a.756.756,0,1,1-.756-.755A.756.756,0,0,1,354.288,39.288Z" transform="translate(122.726 82.879)" fill="#fff" fill-rule="evenodd"/>
    <path id="Path_574" data-name="Path 574" d="M386.658,55.067a.485.485,0,1,1-.485-.485A.485.485,0,0,1,386.658,55.067Z" transform="translate(133.082 99.632)" fill="#fff" fill-rule="evenodd"/>
    <path id="Path_575" data-name="Path 575" d="M358.815,50.87a.484.484,0,1,1-.484-.485A.485.485,0,0,1,358.815,50.87Z" transform="translate(124.234 95.184)" fill="#fff" fill-rule="evenodd"/>
    <path id="Path_576" data-name="Path 576" d="M359.3,62.244a.484.484,0,1,1-.485-.485A.485.485,0,0,1,359.3,62.244Z" transform="translate(124.388 107.24)" fill="#fff" fill-rule="evenodd"/>
    <circle id="Ellipse_35" data-name="Ellipse 35" cx="0.485" cy="0.485" r="0.485" transform="translate(490.909 163.008)" fill="#fff"/>
    <path id="Path_577" data-name="Path 577" d="M352.563,61.465a.485.485,0,1,1-.485-.485A.485.485,0,0,1,352.563,61.465Z" transform="translate(122.247 106.414)" fill="#fff" fill-rule="evenodd"/>
    <path id="Path_578" data-name="Path 578" d="M390.958,23.776a.484.484,0,1,1-.484-.485A.485.485,0,0,1,390.958,23.776Z" transform="translate(134.448 66.465)" fill="#fff" fill-rule="evenodd"/>
    <path id="Path_579" data-name="Path 579" d="M367.314,51.6a.242.242,0,1,1-.243-.242A.242.242,0,0,1,367.314,51.6Z" transform="translate(126.994 95.944)" fill="#fff" fill-rule="evenodd"/>
    <path id="Path_580" data-name="Path 580" d="M363.676,55.551a.242.242,0,1,1-.243-.242A.243.243,0,0,1,363.676,55.551Z" transform="translate(125.839 100.124)" fill="#fff" fill-rule="evenodd"/>
    <circle id="Ellipse_36" data-name="Ellipse 36" cx="0.485" cy="0.485" r="0.485" transform="translate(490.909 139.025)" fill="#fff"/>
    <path id="Path_581" data-name="Path 581" d="M352.563-10.747a.485.485,0,0,1-.485.485.485.485,0,0,1-.485-.485.485.485,0,0,1,.485-.485A.485.485,0,0,1,352.563-10.747Z" transform="translate(122.247)" fill="#fff" fill-rule="evenodd"/>
    <path id="Path_582" data-name="Path 582" d="M361.512,21.464a.485.485,0,1,1-.485-.485A.485.485,0,0,1,361.512,21.464Z" transform="translate(125.091 64.015)" fill="#fff" fill-rule="evenodd"/>
    <path id="Path_583" data-name="Path 583" d="M473.073-17.71a1.455,1.455,0,0,1,2.057,0,1.455,1.455,0,0,1,0,2.057,1.455,1.455,0,0,1-2.057,0A1.456,1.456,0,0,1,473.073-17.71Z" transform="translate(161.196)" fill="#fff" fill-rule="evenodd"/>
    <circle id="Ellipse_37" data-name="Ellipse 37" cx="1.454" cy="1.454" r="1.454" transform="translate(554.113 -14.14)" fill="#fff"/>
    <path id="Path_584" data-name="Path 584" d="M454.649,2.771a1.455,1.455,0,1,1,0,2.057A1.456,1.456,0,0,1,454.649,2.771Z" transform="translate(155.324 44.763)" fill="#fff" fill-rule="evenodd"/>
    <path id="Path_585" data-name="Path 585" d="M463.9-35.333a1.03,1.03,0,0,1,1.455,0,1.03,1.03,0,0,1,0,1.455,1.03,1.03,0,0,1-1.455,0A1.03,1.03,0,0,1,463.9-35.333Z" transform="translate(158.103)" fill="#fff" fill-rule="evenodd"/>
    <path id="Path_586" data-name="Path 586" d="M482.564,5.124a1.028,1.028,0,1,1,0,1.454A1.027,1.027,0,0,1,482.564,5.124Z" transform="translate(164.045 47.184)" fill="#fff" fill-rule="evenodd"/>
    <path id="Path_587" data-name="Path 587" d="M435.605-20.878a1.027,1.027,0,0,1,1.454,0,1.027,1.027,0,0,1,0,1.454,1.027,1.027,0,0,1-1.454,0A1.029,1.029,0,0,1,435.605-20.878Z" transform="translate(149.098)" fill="#fff" fill-rule="evenodd"/>
    <circle id="Ellipse_38" data-name="Ellipse 38" cx="0.756" cy="0.756" r="0.756" transform="translate(642.262 80.952)" fill="#fff"/>
    <path id="Path_588" data-name="Path 588" d="M467.788-14.9a.484.484,0,0,1,.686,0,.485.485,0,0,1,0,.685.484.484,0,0,1-.686,0A.485.485,0,0,1,467.788-14.9Z" transform="translate(159.125)" fill="#fff" fill-rule="evenodd"/>
    <path id="Path_589" data-name="Path 589" d="M484.508,7.754a.485.485,0,1,1,0,.685A.484.484,0,0,1,484.508,7.754Z" transform="translate(164.438 49.846)" fill="#fff" fill-rule="evenodd"/>
    <path id="Path_590" data-name="Path 590" d="M492.208-.632a.486.486,0,0,1,.686,0,.486.486,0,0,1,0,.686.486.486,0,0,1-.686,0A.486.486,0,0,1,492.208-.632Z" transform="translate(205.846 40.958)" fill="#fff" fill-rule="evenodd"/>
    <path id="Path_591" data-name="Path 591" d="M485.756-2.97a.484.484,0,0,1,.686,0,.485.485,0,0,1,0,.685.484.484,0,0,1-.686,0A.485.485,0,0,1,485.756-2.97Z" transform="translate(164.834 38.479)" fill="#fff" fill-rule="evenodd"/>
    <path id="Path_592" data-name="Path 592" d="M442.621,4.184a.485.485,0,1,1,0,.685A.484.484,0,0,1,442.621,4.184Z" transform="translate(151.128 46.062)" fill="#fff" fill-rule="evenodd"/>
    <path id="Path_593" data-name="Path 593" d="M479.013,1.23a.243.243,0,1,1,0,.343A.242.242,0,0,1,479.013,1.23Z" transform="translate(162.592 42.887)" fill="#fff" fill-rule="evenodd"/>
    <circle id="Ellipse_39" data-name="Ellipse 39" cx="0.242" cy="0.242" r="0.242" transform="translate(703.71 92.915)" fill="#fff"/>
    <circle id="Ellipse_40" data-name="Ellipse 40" cx="0.242" cy="0.242" r="0.242" transform="translate(559.176 -39.415)" fill="#fff"/>
    <path id="Path_594" data-name="Path 594" d="M484.381,1.007a.242.242,0,1,1,0,.342A.242.242,0,0,1,484.381,1.007Z" transform="translate(164.297 42.651)" fill="#fff" fill-rule="evenodd"/>
    <path id="Path_595" data-name="Path 595" d="M477.524,5.262a.485.485,0,1,1,0,.686A.486.486,0,0,1,477.524,5.262Z" transform="translate(162.218 47.205)" fill="#fff" fill-rule="evenodd"/>
    <path id="Path_596" data-name="Path 596" d="M492.916,21.34a.485.485,0,1,1,0,.685A.484.484,0,0,1,492.916,21.34Z" transform="translate(205.846 64.246)" fill="#fff" fill-rule="evenodd"/>
    <path id="Path_597" data-name="Path 597" d="M396.637-39.031a.485.485,0,0,1,.685,0,.484.484,0,0,1,0,.686.485.485,0,0,1-.685,0A.486.486,0,0,1,396.637-39.031Z" transform="translate(136.516)" fill="#fff" fill-rule="evenodd"/>
    <path id="Path_598" data-name="Path 598" d="M481.194,42.071a.484.484,0,1,1,0,.685A.485.485,0,0,1,481.194,42.071Z" transform="translate(163.385 86.221)" fill="#fff" fill-rule="evenodd"/>
    <path id="Path_599" data-name="Path 599" d="M461.808,26.64a.485.485,0,1,1,0,.686A.486.486,0,0,1,461.808,26.64Z" transform="translate(157.224 69.865)" fill="#fff" fill-rule="evenodd"/>
    <circle id="Ellipse_41" data-name="Ellipse 41" cx="1.454" cy="1.454" r="1.454" transform="translate(736.177 59.602)" fill="#fff"/>
    <path id="Path_600" data-name="Path 600" d="M601.709-20.543a1.453,1.453,0,0,1,2.056,0,1.455,1.455,0,0,1,0,2.057,1.453,1.453,0,0,1-2.056,0A1.455,1.455,0,0,1,601.709-20.543Z" transform="translate(205.846)" fill="#fff" fill-rule="evenodd"/>
    <path id="Path_601" data-name="Path 601" d="M560.22-12.26a1.453,1.453,0,0,1,2.056,0,1.455,1.455,0,0,1,0,2.057,1.453,1.453,0,0,1-2.056,0A1.455,1.455,0,0,1,560.22-12.26Z" transform="translate(205.846)" fill="#fff" fill-rule="evenodd"/>
    <path id="Path_602" data-name="Path 602" d="M512.332,29.283a1.455,1.455,0,1,1,0,2.057A1.455,1.455,0,0,1,512.332,29.283Z" transform="translate(205.846 73.18)" fill="#fff" fill-rule="evenodd"/>
    <path id="Path_603" data-name="Path 603" d="M516.84,44.406a1.455,1.455,0,1,1,0,2.057A1.456,1.456,0,0,1,516.84,44.406Z" transform="translate(205.846 89.391)" fill="#fff" fill-rule="evenodd"/>
    <path id="Path_604" data-name="Path 604" d="M521.582-8.821a1.027,1.027,0,0,1,1.454,0,1.027,1.027,0,0,1,0,1.454,1.027,1.027,0,0,1-1.454,0A1.027,1.027,0,0,1,521.582-8.821Z" transform="translate(205.846)" fill="#fff" fill-rule="evenodd"/>
    <path id="Path_605" data-name="Path 605" d="M578.867-35.5a1.029,1.029,0,0,1,1.454,0,1.028,1.028,0,0,1,0,1.455,1.029,1.029,0,0,1-1.454,0A1.028,1.028,0,0,1,578.867-35.5Z" transform="translate(205.846)" fill="#fff" fill-rule="evenodd"/>
    <path id="Path_606" data-name="Path 606" d="M570.634-27.5a1.027,1.027,0,0,1,1.454,0,1.027,1.027,0,0,1,0,1.454,1.027,1.027,0,0,1-1.454,0A1.027,1.027,0,0,1,570.634-27.5Z" transform="translate(205.846)" fill="#fff" fill-rule="evenodd"/>
    <path id="Path_607" data-name="Path 607" d="M540.247,31.635a1.028,1.028,0,1,1,0,1.454A1.029,1.029,0,0,1,540.247,31.635Z" transform="translate(205.846 75.462)" fill="#fff" fill-rule="evenodd"/>
    <path id="Path_608" data-name="Path 608" d="M493.289,5.634a1.028,1.028,0,1,1,0,1.454A1.027,1.027,0,0,1,493.289,5.634Z" transform="translate(205.846 47.728)" fill="#fff" fill-rule="evenodd"/>
    <path id="Path_609" data-name="Path 609" d="M537.2,45.656a.756.756,0,1,1,0,1.069A.756.756,0,0,1,537.2,45.656Z" transform="translate(205.846 90.217)" fill="#fff" fill-rule="evenodd"/>
    <circle id="Ellipse_42" data-name="Ellipse 42" cx="0.756" cy="0.756" r="0.756" transform="translate(748.873 166.168)" fill="#fff"/>
    <path id="Path_610" data-name="Path 610" d="M514.281,41.135a.755.755,0,1,1,0,1.068A.755.755,0,0,1,514.281,41.135Z" transform="translate(205.846 85.41)" fill="#fff" fill-rule="evenodd"/>
    <path id="Path_611" data-name="Path 611" d="M470.428,68.876a.756.756,0,1,1,0,1.068A.754.754,0,0,1,470.428,68.876Z" transform="translate(160.072 114.905)" fill="#fff" fill-rule="evenodd"/>
    <path id="Path_612" data-name="Path 612" d="M525.471,11.61a.485.485,0,1,1,0,.686A.486.486,0,0,1,525.471,11.61Z" transform="translate(205.846 53.934)" fill="#fff" fill-rule="evenodd"/>
    <path id="Path_613" data-name="Path 613" d="M542.191,34.265a.485.485,0,1,1,0,.686A.486.486,0,0,1,542.191,34.265Z" transform="translate(205.846 77.947)" fill="#fff" fill-rule="evenodd"/>
    <path id="Path_614" data-name="Path 614" d="M517.962,40.544a.485.485,0,1,1,0,.686A.485.485,0,0,1,517.962,40.544Z" transform="translate(205.846 84.602)" fill="#fff" fill-rule="evenodd"/>
    <path id="Path_615" data-name="Path 615" d="M572.046,29.968a.485.485,0,1,1,0,.686A.486.486,0,0,1,572.046,29.968Z" transform="translate(205.846 73.392)" fill="#fff" fill-rule="evenodd"/>
    <path id="Path_616" data-name="Path 616" d="M586.79,26.364a.485.485,0,1,1,0,.686A.485.485,0,0,1,586.79,26.364Z" transform="translate(205.846 69.572)" fill="#fff" fill-rule="evenodd"/>
    <path id="Path_617" data-name="Path 617" d="M549.891,25.879a.485.485,0,1,1,0,.686A.486.486,0,0,1,549.891,25.879Z" transform="translate(205.846 69.058)" fill="#fff" fill-rule="evenodd"/>
    <path id="Path_618" data-name="Path 618" d="M446.566-9.613a.485.485,0,0,1,.685,0,.484.484,0,0,1,0,.686.485.485,0,0,1-.685,0A.486.486,0,0,1,446.566-9.613Z" transform="translate(152.381)" fill="#fff" fill-rule="evenodd"/>
    <path id="Path_619" data-name="Path 619" d="M613.715-34.145a.485.485,0,0,1,.685,0,.484.484,0,0,1,0,.686.485.485,0,0,1-.685,0A.486.486,0,0,1,613.715-34.145Z" transform="translate(205.846)" fill="#fff" fill-rule="evenodd"/>
    <path id="Path_620" data-name="Path 620" d="M543.44,23.541a.485.485,0,1,1,0,.686A.485.485,0,0,1,543.44,23.541Z" transform="translate(205.846 66.58)" fill="#fff" fill-rule="evenodd"/>
    <path id="Path_621" data-name="Path 621" d="M500.3,30.695a.485.485,0,1,1,0,.686A.486.486,0,0,1,500.3,30.695Z" transform="translate(205.846 74.163)" fill="#fff" fill-rule="evenodd"/>
    <path id="Path_622" data-name="Path 622" d="M390.131-13.029a.485.485,0,0,1,.685,0,.484.484,0,0,1,0,.686.485.485,0,0,1-.685,0A.484.484,0,0,1,390.131-13.029Z" transform="translate(134.448)" fill="#fff" fill-rule="evenodd"/>
    <circle id="Ellipse_43" data-name="Ellipse 43" cx="0.242" cy="0.242" r="0.242" transform="translate(742.472 98.581)" fill="#fff"/>
    <circle id="Ellipse_44" data-name="Ellipse 44" cx="0.242" cy="0.242" r="0.242" transform="translate(704.195 114.753)" fill="#fff"/>
    <circle id="Ellipse_45" data-name="Ellipse 45" cx="0.242" cy="0.242" r="0.242" transform="translate(710.842 105.618)" fill="#fff"/>
    <circle id="Ellipse_46" data-name="Ellipse 46" cx="0.242" cy="0.242" r="0.242" transform="translate(618.134 -11.745)" fill="#fff"/>
    <path id="Path_623" data-name="Path 623" d="M555.618,51.5a.242.242,0,1,1,0,.342A.242.242,0,0,1,555.618,51.5Z" transform="translate(205.846 96.021)" fill="#fff" fill-rule="evenodd"/>
    <path id="Path_624" data-name="Path 624" d="M555.86,68.511a.243.243,0,1,1,0,.343A.244.244,0,0,1,555.86,68.511Z" transform="translate(205.846 114.004)" fill="#fff" fill-rule="evenodd"/>
    <path id="Path_625" data-name="Path 625" d="M406.233,46.718a.242.242,0,1,1,0,.343A.241.241,0,0,1,406.233,46.718Z" transform="translate(139.483 90.968)" fill="#fff" fill-rule="evenodd"/>
    <path id="Path_626" data-name="Path 626" d="M546.616,68.754a.242.242,0,1,1,0,.342A.241.241,0,0,1,546.616,68.754Z" transform="translate(205.846 114.26)" fill="#fff" fill-rule="evenodd"/>
    <circle id="Ellipse_47" data-name="Ellipse 47" cx="0.242" cy="0.242" r="0.242" transform="translate(752.149 176.381)" fill="#fff"/>
    <path id="Path_627" data-name="Path 627" d="M516.243,43.6a.242.242,0,1,1,0,.342A.241.241,0,0,1,516.243,43.6Z" transform="translate(205.846 87.667)" fill="#fff" fill-rule="evenodd"/>
    <circle id="Ellipse_48" data-name="Ellipse 48" cx="0.242" cy="0.242" r="0.242" transform="translate(747.84 98.121)" fill="#fff"/>
    <path id="Path_628" data-name="Path 628" d="M514.644,39.988a.242.242,0,1,1,0,.343A.243.243,0,0,1,514.644,39.988Z" transform="translate(205.846 83.855)" fill="#fff" fill-rule="evenodd"/>
    <path id="Path_629" data-name="Path 629" d="M535.207,31.773a.485.485,0,1,1,0,.686A.486.486,0,0,1,535.207,31.773Z" transform="translate(205.846 75.306)" fill="#fff" fill-rule="evenodd"/>
    <path id="Path_630" data-name="Path 630" d="M505.622,39.575a.485.485,0,1,1,0,.685A.484.484,0,0,1,505.622,39.575Z" transform="translate(205.846 83.574)" fill="#fff" fill-rule="evenodd"/>
    <path id="Path_631" data-name="Path 631" d="M512.048,40.059a.485.485,0,1,1,0,.686A.486.486,0,0,1,512.048,40.059Z" transform="translate(205.846 84.088)" fill="#fff" fill-rule="evenodd"/>
    <path id="Path_632" data-name="Path 632" d="M401.456-.147a.483.483,0,0,1,.685,0,.483.483,0,0,1,0,.685.483.483,0,0,1-.685,0A.483.483,0,0,1,401.456-.147Z" transform="translate(138.047 41.471)" fill="#fff" fill-rule="evenodd"/>
    <path id="Path_633" data-name="Path 633" d="M409.541-16.274a1.027,1.027,0,0,1,1.454,0,1.027,1.027,0,0,1,0,1.454,1.027,1.027,0,0,1-1.454,0A1.027,1.027,0,0,1,409.541-16.274Z" transform="translate(140.802)" fill="#fff" fill-rule="evenodd"/>
    <path id="Path_634" data-name="Path 634" d="M419.185-22.03a.486.486,0,0,1,.686,0,.486.486,0,0,1,0,.686.486.486,0,0,1-.686,0A.486.486,0,0,1,419.185-22.03Z" transform="translate(143.681)" fill="#fff" fill-rule="evenodd"/>
    <path id="Path_635" data-name="Path 635" d="M412.734-24.368a.485.485,0,0,1,.685,0,.484.484,0,0,1,0,.686.485.485,0,0,1-.685,0A.484.484,0,0,1,412.734-24.368Z" transform="translate(141.63)" fill="#fff" fill-rule="evenodd"/>
    <path id="Path_636" data-name="Path 636" d="M405.99-20.168a.244.244,0,0,1,.343,0,.242.242,0,0,1,0,.343.242.242,0,0,1-.343,0A.242.242,0,0,1,405.99-20.168Z" transform="translate(139.406)" fill="#fff" fill-rule="evenodd"/>
    <path id="Path_637" data-name="Path 637" d="M411.359-20.391a.241.241,0,0,1,.342,0,.242.242,0,0,1,0,.343.243.243,0,0,1-.342,0A.242.242,0,0,1,411.359-20.391Z" transform="translate(141.11)" fill="#fff" fill-rule="evenodd"/>
    <path id="Path_638" data-name="Path 638" d="M404.5-16.136a.486.486,0,0,1,.686,0,.486.486,0,0,1,0,.686.486.486,0,0,1-.686,0A.486.486,0,0,1,404.5-16.136Z" transform="translate(139.014)" fill="#fff" fill-rule="evenodd"/>
    <path id="Path_639" data-name="Path 639" d="M550.6,47.851a.485.485,0,1,1,0,.686A.486.486,0,0,1,550.6,47.851Z" transform="translate(205.846 92.347)" fill="#fff" fill-rule="evenodd"/>
    <path id="Path_640" data-name="Path 640" d="M608.117,3.7a.485.485,0,1,1,0,.685A.486.486,0,0,1,608.117,3.7Z" transform="translate(205.846 45.548)" fill="#fff" fill-rule="evenodd"/>
    <path id="Path_641" data-name="Path 641" d="M595.994,48.336a.485.485,0,1,1,0,.685A.484.484,0,0,1,595.994,48.336Z" transform="translate(205.846 92.861)" fill="#fff" fill-rule="evenodd"/>
    <path id="Path_642" data-name="Path 642" d="M529.988,65.15a.485.485,0,1,1,0,.686A.486.486,0,0,1,529.988,65.15Z" transform="translate(205.846 110.683)" fill="#fff" fill-rule="evenodd"/>
    <path id="Path_643" data-name="Path 643" d="M614.822-.632a.486.486,0,0,1,.686,0,.486.486,0,0,1,0,.686.486.486,0,0,1-.686,0A.486.486,0,0,1,614.822-.632Z" transform="translate(205.846 40.958)" fill="#fff" fill-rule="evenodd"/>
    <path id="Path_644" data-name="Path 644" d="M435.244,41.188a1.028,1.028,0,1,1,0,1.454A1.027,1.027,0,0,1,435.244,41.188Z" transform="translate(148.983 85.651)" fill="#fff" fill-rule="evenodd"/>
    <path id="Path_645" data-name="Path 645" d="M436.634,9.853a1.028,1.028,0,1,1,0,1.454A1.027,1.027,0,0,1,436.634,9.853Z" transform="translate(149.425 52.228)" fill="#fff" fill-rule="evenodd"/>
    <path id="Path_646" data-name="Path 646" d="M432.2,55.209a.756.756,0,1,1,0,1.069A.756.756,0,0,1,432.2,55.209Z" transform="translate(147.915 100.375)" fill="#fff" fill-rule="evenodd"/>
    <path id="Path_647" data-name="Path 647" d="M437.188,43.818a.485.485,0,1,1,0,.686A.486.486,0,0,1,437.188,43.818Z" transform="translate(149.401 88.073)" fill="#fff" fill-rule="evenodd"/>
    <path id="Path_648" data-name="Path 648" d="M444.888,35.432a.485.485,0,1,1,0,.686A.486.486,0,0,1,444.888,35.432Z" transform="translate(151.848 79.184)" fill="#fff" fill-rule="evenodd"/>
    <path id="Path_649" data-name="Path 649" d="M453.88,6.536a.485.485,0,1,1,0,.686A.486.486,0,0,1,453.88,6.536Z" transform="translate(154.705 48.556)" fill="#fff" fill-rule="evenodd"/>
    <path id="Path_650" data-name="Path 650" d="M438.437,33.094a.485.485,0,1,1,0,.686A.485.485,0,0,1,438.437,33.094Z" transform="translate(149.798 76.706)" fill="#fff" fill-rule="evenodd"/>
    <circle id="Ellipse_49" data-name="Ellipse 49" cx="0.242" cy="0.242" r="0.242" transform="translate(579.189 118.231)" fill="#fff"/>
    <path id="Path_651" data-name="Path 651" d="M422.419,57.24a.242.242,0,1,1,0,.342A.241.241,0,0,1,422.419,57.24Z" transform="translate(144.622 102.089)" fill="#fff" fill-rule="evenodd"/>
    <circle id="Ellipse_50" data-name="Ellipse 50" cx="0.242" cy="0.242" r="0.242" transform="translate(604.119 167.099)" fill="#fff"/>
    <path id="Path_652" data-name="Path 652" d="M437.062,37.071a.243.243,0,1,1,0,.343A.242.242,0,0,1,437.062,37.071Z" transform="translate(149.272 80.771)" fill="#fff" fill-rule="evenodd"/>
    <path id="Path_653" data-name="Path 653" d="M430.2,41.326a.485.485,0,1,1,0,.686A.486.486,0,0,1,430.2,41.326Z" transform="translate(147.182 85.431)" fill="#fff" fill-rule="evenodd"/>
    <path id="Path_654" data-name="Path 654" d="M397.122,41.029a.484.484,0,1,1,0,.685A.485.485,0,0,1,397.122,41.029Z" transform="translate(136.669 85.116)" fill="#fff" fill-rule="evenodd"/>
    <path id="Path_655" data-name="Path 655" d="M445.6,57.4a.485.485,0,1,1,0,.685A.486.486,0,0,1,445.6,57.4Z" transform="translate(152.073 102.473)" fill="#fff" fill-rule="evenodd"/>
    <path id="Path_656" data-name="Path 656" d="M538.877,68.582a.485.485,0,1,1,0,.686A.486.486,0,0,1,538.877,68.582Z" transform="translate(205.846 114.321)" fill="#fff" fill-rule="evenodd"/>
    <path id="Path_657" data-name="Path 657" d="M545.717,90.455a.485.485,0,1,1,0,.686A.486.486,0,0,1,545.717,90.455Z" transform="translate(205.846 137.505)" fill="#fff" fill-rule="evenodd"/>
    <path id="Path_658" data-name="Path 658" d="M519.492,53.152a.484.484,0,1,1,0,.685A.483.483,0,0,1,519.492,53.152Z" transform="translate(205.846 97.965)" fill="#fff" fill-rule="evenodd"/>
  </g>
</svg>
